<svg width="72" height="53" viewBox="0 0 72 53" fill="none" xmlns="http://www.w3.org/2000/svg">
<path d="M20.6985 49.9406V52.832H19.2847V46.3882H20.6985V48.8329H23.3332V46.3882H24.7484V52.832H23.3332V49.9406H20.6985Z" fill="#007C9E"/>
<path d="M28.8569 51.8563C29.6187 51.8563 30.692 51.4125 30.692 49.6056C30.692 47.8036 29.6187 47.3545 28.8569 47.3545C28.093 47.3545 27.0198 47.8036 27.0198 49.6056C27.0198 51.4125 28.093 51.8563 28.8569 51.8563ZM28.8569 46.2148C29.7515 46.2148 32.106 46.583 32.106 49.6056C32.106 52.6302 29.7515 53 28.8569 53C27.964 53 25.6069 52.6302 25.6069 49.6056C25.6069 46.583 27.964 46.2148 28.8569 46.2148Z" fill="#007C9E"/>
<path d="M34.3249 50.8467C34.3305 51.2052 34.5219 51.8855 35.7535 51.8855C36.4229 51.8855 37.1682 51.7347 37.1682 51.0526C37.1682 50.5496 36.6575 50.4139 35.9408 50.2549L35.2174 50.094C34.1227 49.8496 33.0711 49.6174 33.0711 48.1992C33.0711 47.4813 33.4745 46.2148 35.6668 46.2148C37.7401 46.2148 38.297 47.5088 38.3059 48.2969H36.948C36.912 48.0101 36.7999 47.3286 35.5659 47.3286C35.0282 47.3286 34.3874 47.518 34.3874 48.0997C34.3874 48.6031 34.8225 48.7094 35.1019 48.7753L36.7527 49.1606C37.6741 49.3733 38.5224 49.7325 38.5224 50.8888C38.5224 52.8269 36.4528 53 35.8548 53C33.3908 53 32.9658 51.6463 32.9658 50.8467H34.3249Z" fill="#007C9E"/>
<path d="M42.1051 49.3931C43.1595 49.3931 43.1595 48.6775 43.1595 48.3886C43.1595 47.7604 42.7895 47.5009 41.917 47.5009H40.7968V49.3931H42.1051ZM40.7968 52.8281H39.3809V46.3869H42.472C43.7812 46.3869 44.571 47.1867 44.571 48.451C44.571 49.0351 44.2358 50.5059 42.4146 50.5059H40.7968V52.8281Z" fill="#007C9E"/>
<path d="M46.8437 52.8281H45.4302V46.3869H46.8437V52.8281Z" fill="#007C9E"/>
<path d="M51.1579 52.8281H49.7436V47.5275H47.7036V46.3869H53.2005V47.5275H51.1579V52.8281Z" fill="#007C9E"/>
<path d="M55.8609 50.3893H57.5871L56.7494 47.8418H56.7273L55.8609 50.3893ZM55.0154 52.8281H53.5264L55.9377 46.3869H57.5699L59.9512 52.8281H58.413L57.9834 51.5005H55.4867L55.0154 52.8281Z" fill="#007C9E"/>
<path d="M62.2256 51.6642H65.5844V52.8281H60.811V46.3869H62.2256V51.6642Z" fill="#007C9E"/>
<path d="M67.798 50.8467C67.8076 51.2052 67.998 51.8855 69.2304 51.8855C69.9021 51.8855 70.6447 51.7347 70.6447 51.0526C70.6447 50.5496 70.1358 50.4139 69.4194 50.2549L68.6928 50.094C67.6031 49.8496 66.5466 49.6174 66.5466 48.1992C66.5466 47.4813 66.9535 46.2148 69.1455 46.2148C71.2182 46.2148 71.7736 47.5088 71.7825 48.2969H70.4279C70.3866 48.0101 70.274 47.3286 69.0398 47.3286C68.506 47.3286 67.8662 47.518 67.8662 48.0997C67.8662 48.6031 68.2972 48.7094 68.5807 48.7753L70.23 49.1606C71.1545 49.3733 72 49.7325 72 50.8888C72 52.8269 69.9269 53 69.3359 53C66.8667 53 66.4443 51.6463 66.4443 50.8467H67.798Z" fill="#007C9E"/>
<path fill-rule="evenodd" clip-rule="evenodd" d="M54.8765 39.5676C54.7975 39.9729 54.6532 40.3406 54.4544 40.6635C54.2529 40.9881 53.9852 41.2478 53.6479 41.4384C53.3116 41.6327 52.8932 41.7279 52.3977 41.7279C51.8991 41.7279 51.4887 41.6327 51.1555 41.4384C50.8243 41.2478 50.5594 40.9881 50.3591 40.6635C50.1581 40.3406 50.0194 39.9729 49.936 39.5676C49.8535 39.1583 49.8133 38.7424 49.8133 38.3159C49.8133 37.8876 49.8535 37.4663 49.936 37.0511C50.0194 36.6385 50.1581 36.2732 50.3591 35.9559C50.5594 35.6381 50.8243 35.3819 51.1555 35.1789C51.4887 34.9797 51.8991 34.8778 52.3977 34.8778C52.8932 34.8778 53.3116 34.9797 53.6479 35.1789C53.9852 35.3819 54.2529 35.6381 54.4544 35.9559C54.6532 36.2732 54.7975 36.6385 54.8765 37.0511C54.9609 37.4663 55.0032 37.8876 55.0032 38.3159C55.0032 38.7424 54.9609 39.1583 54.8765 39.5676ZM57.5464 35.9857C57.2832 35.2897 56.9127 34.6983 56.4283 34.2077C55.946 33.7191 55.3671 33.3397 54.6833 33.0694C53.9991 32.8005 53.2373 32.6695 52.3977 32.6695C51.5569 32.6695 50.8007 32.8005 50.1219 33.0694C49.4459 33.3397 48.8684 33.7191 48.3856 34.2077C47.9031 34.6983 47.5303 35.2897 47.2675 35.9857C47.0043 36.6842 46.8762 37.4592 46.8762 38.3159C46.8762 39.1722 47.0043 39.943 47.2675 40.633C47.5303 41.325 47.9031 41.9119 48.3856 42.4033C48.8684 42.8923 49.4459 43.2696 50.1219 43.5305C50.8007 43.7921 51.5569 43.9212 52.3977 43.9212C53.2373 43.9212 53.9991 43.7921 54.6833 43.5305C55.3671 43.2696 55.946 42.8923 56.4283 42.4033C56.9127 41.9119 57.2832 41.325 57.5464 40.633C57.8083 39.943 57.9387 39.1722 57.9387 38.3159C57.9387 37.4592 57.8083 36.6842 57.5464 35.9857ZM43.09 43.6535H46.0274V28.8795H43.09V43.6535ZM38.2711 43.6535H41.2084V28.8795H38.2711V43.6535ZM34.3664 39.5676C34.2839 39.9729 34.1431 40.3406 33.9429 40.6635C33.7414 40.9881 33.4723 41.2478 33.1348 41.4384C32.7982 41.6327 32.3812 41.7279 31.8855 41.7279C31.3879 41.7279 30.9744 41.6327 30.6414 41.4384C30.313 41.2478 30.046 40.9881 29.8486 40.6635C29.6469 40.3406 29.5056 39.9729 29.4222 39.5676C29.3385 39.1583 29.2988 38.7424 29.2988 38.3159C29.2988 37.8876 29.3385 37.4663 29.4222 37.0511C29.5056 36.6385 29.6469 36.2732 29.8486 35.9559C30.046 35.6381 30.313 35.3819 30.6414 35.1789C30.9744 34.9797 31.3879 34.8778 31.8855 34.8778C32.3812 34.8778 32.7982 34.9797 33.1348 35.1789C33.4723 35.3819 33.7414 35.6381 33.9429 35.9559C34.1431 36.2732 34.2839 36.6385 34.3664 37.0511C34.4499 37.4663 34.4905 37.8876 34.4905 38.3159C34.4905 38.7424 34.4499 39.1583 34.3664 39.5676ZM35.9159 34.2077C35.4354 33.7191 34.8534 33.3397 34.1694 33.0694C33.488 32.8005 32.7258 32.6695 31.8855 32.6695C31.0435 32.6695 30.2832 32.8005 29.6098 33.0694C28.9344 33.3397 28.3565 33.7191 27.8725 34.2077C27.3911 34.6983 27.0181 35.2897 26.7567 35.9857C26.4956 36.6842 26.3626 37.4592 26.3626 38.3159C26.3626 39.1722 26.4956 39.943 26.7567 40.633C27.0181 41.325 27.3911 41.9119 27.8725 42.4033C28.3565 42.8923 28.9344 43.2696 29.6098 43.5305C30.2832 43.7921 31.0435 43.9212 31.8855 43.9212C32.7258 43.9212 33.488 43.7921 34.1694 43.5305C34.8534 43.2696 35.4354 42.8923 35.9159 42.4033C36.3998 41.9119 36.7698 41.325 37.033 40.633C37.2942 39.943 37.4267 39.1722 37.4267 38.3159C37.4267 37.4592 37.2942 36.6842 37.033 35.9857C36.7698 35.2897 36.3998 34.6983 35.9159 34.2077ZM22.6605 39.5963C22.5792 40.0143 22.4384 40.3723 22.2377 40.6854C22.0388 40.9971 21.7768 41.2478 21.4545 41.4384C21.1292 41.6327 20.7249 41.7279 20.2424 41.7279C19.7744 41.7279 19.3736 41.6327 19.0422 41.4384C18.7127 41.2478 18.4466 40.9971 18.248 40.6854C18.0489 40.3723 17.902 40.0143 17.8113 39.5963C17.7219 39.1835 17.6787 38.7636 17.6787 38.3357C17.6787 37.8942 17.7205 37.4663 17.8028 37.0511C17.8839 36.6385 18.0275 36.2732 18.2261 35.9559C18.4254 35.6381 18.6875 35.3819 19.0126 35.1789C19.3365 34.9797 19.7393 34.8778 20.2236 34.8778C20.6899 34.8778 21.0864 34.9797 21.4115 35.1789C21.7361 35.3819 21.9991 35.6416 22.2081 35.9669C22.4128 36.293 22.5618 36.6599 22.6526 37.0709C22.7414 37.4891 22.7856 37.9073 22.7856 38.3357C22.7856 38.7636 22.7454 39.1835 22.6605 39.5963ZM24.5449 34.4048C24.1442 33.8798 23.6412 33.4615 23.0357 33.1418C22.4259 32.8259 21.7048 32.6695 20.8622 32.6695C20.2014 32.6695 19.595 32.7989 19.0422 33.0595C18.4913 33.3222 18.0357 33.741 17.6787 34.321H17.6354V32.9544H14.8435V50.625H17.7828V42.3285H17.8239C18.1812 42.8514 18.6389 43.251 19.1999 43.5185C19.757 43.7874 20.3672 43.9212 21.0281 43.9212C21.8144 43.9212 22.5 43.7693 23.0869 43.4672C23.6722 43.1657 24.1611 42.7575 24.5546 42.2473C24.9455 41.7357 25.2381 41.1483 25.4329 40.4878C25.6252 39.8277 25.722 39.1374 25.722 38.4192C25.722 37.6589 25.6252 36.933 25.4329 36.2344C25.2381 35.5379 24.9433 34.9301 24.5449 34.4048ZM5.27094 37.9417L7.19579 32.5211H7.23572L9.09777 37.9417H5.27094ZM5.58238 28.8788L0 43.6547H3.26622L4.42526 40.3627H9.94373L11.0621 43.6547H14.4313L8.90996 28.8788H5.58238Z" fill="#007C9E"/>
<path d="M20.0181 19.5235L19.2695 20.2732L18.5216 19.5235H20.0181ZM19.4559 25.5983L20.1892 23.0247H21.1718V15.8525L10.9968 27.0149V31.934L16.0773 26.3584H18.4283C18.4283 26.3584 19.2432 26.4419 19.4559 25.5983ZM12.0434 15.3983H10.545V16.896H9.22872V15.3983H7.73169V14.0822H9.22872V12.5857H10.545V14.0822H12.0434V15.3983ZM15.493 9.57311H5.86426V26.3584H10.4025L20.8601 14.8822L15.493 9.57311ZM26.1546 21.5839H29.6392V18.1484L31.4777 15.3009H24.0988L26.1546 18.1484V21.5839ZM29.8145 22.0391H25.6476V21.0462L16.1335 31.771H21.1713L26.1294 26.0453H29.8145V25.4965H29.8192V22.331H29.8145V22.0391ZM26.1574 30.5828L27.8984 31.9375L29.6392 30.5828V26.4969H26.1574V30.5828Z" fill="#007C9E"/>
<path class="flame" fill-rule="evenodd" clip-rule="evenodd" d="M23.5767 5.3405C23.5429 5.32967 23.4977 5.31911 23.4646 5.30453C17.5825 3.7894 17.2233 1.00147 17.3806 0.00172016C16.966 1.14658 16.9996 3.39727 17.437 4.74631C18.1424 5.45106 20.4849 6.48278 22.7472 6.70789C22.9926 6.73939 23.2288 6.78739 23.4646 6.83023C29.3923 7.94803 29.8896 12.7848 27.7347 15.126C27.9679 14.6775 30.4573 9.648 24.3568 8.61959C24.0529 8.57397 23.7744 8.51964 23.5177 8.47447C19.2001 7.67725 18.8106 7.03038 18.5974 6.96101C18.4282 7.70149 19.4946 11.706 23.5177 12.2097H23.5497C27.3252 12.6667 27.6908 14.5389 27.7157 15.1465C27.7157 15.1517 27.7161 15.1559 27.7161 15.1602C27.7161 15.1602 27.7206 15.1517 27.726 15.1415C28.815 14.3639 29.5041 12.9584 29.5702 11.4407V11.0166C29.4698 8.63536 27.7897 6.10077 23.5767 5.3405Z" fill="#FDB813"/>
</svg>
