<svg id="Layer_1" data-name="Layer 1" xmlns="http://www.w3.org/2000/svg" viewBox="0 0 411.27 302.18"><defs><style>.cls-1{fill:#ee304b;}.cls-2{fill:#00ad97;}.cls-3{fill:#7b7d80;}.cls-4{fill:#ed1b30;}.cls-5{fill:#ea1d25;}</style></defs><title>STARCARE Hospital Logo</title><path class="cls-1" d="M403.22,494.82a14.39,14.39,0,0,1-2.49-.24c-.6-.11-2.45-.45-5.2-6.72-2.31-5.31-6.54-15.23-10.77-25.17-3.59-8.47-6.8-16-7.64-17.84-.74-1.58-1.37-3-3.28-3-1.65,0-2.5,1.68-3.3,3.55l-18.86,43.9c-1.61,3.84-2.67,5-4.9,5.39-.32,0-.7,0-1,0l-.37,0-.63,0a2,2,0,0,0-2.1,2c0,.75.34,2,2.59,2,2.59,0,5.21-.12,6.93-.21l1.06,0h.37c1.05,0,2.31.06,3.89.14h.23c1.36,0,2.76.11,3.93.11,2.24,0,2.41-1.54,2.41-2,0-1-.61-2-2.33-2h-1.07c-1.61,0-1.61-.35-1.61-.71a11.62,11.62,0,0,1,1-3.79l11.9-29.8,13.53,34.38a1.85,1.85,0,0,0-1.61,1.92c0,1.64,1.71,1.74,3,1.81l.39,0c6.1.18,11.37.18,13.91.18,2.25,0,4.37,0,4.37-2a2,2,0,0,0-2.24-2" transform="translate(-92.48 -279.4)"/><path class="cls-2" d="M501.84,485.3c-1.6,0-1.94,1.51-2.07,2.12-.51,2.86-1.26,3.72-2.4,4.22-1.83.8-5.18.8-6.28.8-7.62,0-8.38-1.27-8.5-4.63-.06-1.44,0-5.05,0-7.44l0-7.88c2.79,0,9.25.18,10.32.31,2.47.25,2.75,1.16,2.9,1.73a10.06,10.06,0,0,1,.14,1.23l0,.26c0,.19,0,.37,0,.53s0,.19,0,.27a1.8,1.8,0,0,0,1.92,1.82c.47,0,2-.2,2-2.83,0-.41.17-3.13.33-4.51l.39-3.39c.13-1.11.18-1.57.18-1.86a1.91,1.91,0,0,0-1.84-2,2.15,2.15,0,0,0-1.53.76l-.07.08a4.14,4.14,0,0,1-.41.39l-.09.09c-.32.37-1.07.5-2.6.66-1,.09-5.59.16-11.74.17l.06-16.1c2.73,0,9.37.18,10.36.32,3,.27,3.3.89,3.74,1.85a5.06,5.06,0,0,1,.36,2c0,2,1.4,2.16,1.83,2.16.72,0,1.66-.37,2.06-2.15a30.41,30.41,0,0,0,.33-3.39c.06-.61.09-1.12.11-1.4a19.65,19.65,0,0,1,.46-3.71l0-.2a3.09,3.09,0,0,0,.09-.68,1.75,1.75,0,0,0-1.78-1.91,2.59,2.59,0,0,0-1,.24l-.27.08-.05,0-.77.12c-.6.1-1.35.21-2.11.28-.36,0-1.84,0-4.39,0l-10.3,0h-5c-.88,0-2.3,0-3.68-.08-1.74,0-4.33-.09-6.73-.09-1.94,0-2.92.64-2.92,1.91,0,1,.77,2,2.49,2a12.44,12.44,0,0,1,2.55.2c1.82.53,2.06.82,2.19,2.59.07,2.2.07,4.12.07,14.74v12.3c0,6.36,0,11.85-.3,14.7-.31,2.41-.77,2.51-1.22,2.61a8.47,8.47,0,0,1-2.22.22,3,3,0,0,0-1,.15,2.24,2.24,0,0,0-.81-.15,5.72,5.72,0,0,1-1.69-.2c-1.07-.21-3.28-.63-6.86-4.21-4-4-8.66-9.71-14.53-16.94l-.42-.52c6.64-5.53,9.49-10.22,9.49-15.58a13.46,13.46,0,0,0-5.64-10.65c-4.22-2.81-9.92-3.17-14.41-3.17-1,0-3.18,0-5.37.08h-.19c-2.19,0-4.45.09-5.68.09l-1.32,0-1.5,0c-2.42-.08-5-.12-7-.12s-2.91.64-2.91,1.91c0,1,.77,2,2.49,2a12,12,0,0,1,2.53.2c1.83.53,2.07.82,2.2,2.6.1,2.2.1,4.11.1,14.73v12.3c0,6.36,0,11.84-.33,14.71-.29,2.4-.76,2.5-1.17,2.59h-.06a8.2,8.2,0,0,1-2.2.22c-1.65,0-2.39,1-2.39,2,0,.34.13,2,2.66,2,1.81,0,4.21-.1,5.89-.18l.76,0c1,0,1.73-.06,2.18-.06l1.48,0,1.51,0c2.39.08,5.67.18,8.27.18s2.72-1.67,2.72-2a2.08,2.08,0,0,0-2.15-2,21.3,21.3,0,0,1-3.33-.25c-1.23-.18-1.49-.56-1.72-2.56-.37-3.28-.42-9.93-.42-14.66l0-.32,5.76.14c.26,0,.31,0,.36.06.41.51,1.35,1.85,2.12,3l.11.16c1.31,1.89,2.93,4.24,4.51,6.3,4.5,6,7.05,9,10.27,10.62,2.2,1.15,4.41,1.55,8.46,1.55h6.9a4.06,4.06,0,0,0,1.29-.2,3.49,3.49,0,0,0,1.25.2c1.24,0,2.64-.05,4.4-.14l.63,0c1,0,2,0,2.78,0l.59,0,.7,0c1.25,0,2.7,0,4.39.06l3.93.11c3.64.17,8,.25,13.35.25,2.69,0,4.32,0,5.06-2.72a46.08,46.08,0,0,0,1-8.07c0-2.52-1.2-2.9-1.91-2.9M439.2,460.81c0,5.28-2.26,8-4.17,9.32-.86.64-1.49.9-4.32.9a19.65,19.65,0,0,1-4.9-.54V449.85a31.34,31.34,0,0,1,3.67-.16C436.65,449.69,439.2,455.68,439.2,460.81Z" transform="translate(-92.48 -279.4)"/><path class="cls-2" d="M167.58,494.82a23.68,23.68,0,0,1-3.48-.24c-1.14-.18-1.48-.51-1.73-2.49-.36-3.29-.41-9.64-.41-14.8V450.36l7.82.13c6.54.1,7.23,2.23,7.29,2.9l.07.71c.06.7.22,2.55,2.11,2.55.76,0,1.7-.4,1.91-2.3v-.09c0-.84,0-2.48.09-4.63,0-1.07.08-3,.08-3.84s0-2.75-1.85-2.75a3,3,0,0,0-.49.06l-.35.06-.42.08c-.24.05-.54.11-.9.16a33.05,33.05,0,0,1-4.73.31H143.3a60.65,60.65,0,0,1-7.06-.33,7.52,7.52,0,0,1-2-.51,3.75,3.75,0,0,0-1.3-.31c-1,0-1.75.75-2,2.24a88.81,88.81,0,0,0-1.6,8.79c0,2.24,1.46,2.41,1.91,2.41a2.15,2.15,0,0,0,2-1.79,6.51,6.51,0,0,1,1-2c.68-1,1.74-1.48,6-1.57l9.45-.22v26.92c0,6.36,0,11.85-.32,14.7-.29,2.41-.76,2.51-1.18,2.6l-.09,0a7.65,7.65,0,0,1-2.16.2,2.13,2.13,0,0,0-2.41,2c0,.34.13,2,2.67,2,1.77,0,4.22-.09,6-.17l1.5,0c.83,0,1.53-.05,2-.05.66,0,1.66,0,2.81.06l1.3,0c2.17.07,4.89.16,7.54.16,1.84,0,2.66-1,2.66-2a2.16,2.16,0,0,0-2.42-2" transform="translate(-92.48 -279.4)"/><path class="cls-2" d="M114.3,464.55l-3-1.67c-5.9-3.27-7-5.28-7-8.07,0-4.06,4.32-6.18,8.59-6.18,4,0,6,1.52,7.07,2.82a6.68,6.68,0,0,1,1.6,3.78c0,1.82,1,2.47,2,2.47s2.17-.6,2.17-3.44c0-3.85.13-5.92.21-7.2,0-.54,0-.92,0-1.18,0-.74-.33-1.7-1.93-2.14a44,44,0,0,0-10.57-1.18C102.24,442.56,94,449,94,457.85c0,7,3.46,11.94,11.94,16.92l4.19,2.46c6,3.55,6.51,6.17,6.51,8.75,0,4.47-3.59,7.6-8.74,7.6-2,0-8.6-.44-10.29-6a11.61,11.61,0,0,1-.58-3.2c0-1.8-1.08-2.44-2-2.44-.36,0-2.13.16-2.16,3.08-.28,3.72-.42,6.84-.42,9.26,0,2,.51,2.86,2.15,3.55,2.82,1.26,6.94,1.9,12.24,1.9,3.64,0,8.92-.32,12.8-3.08,5.36-3.77,7.75-8.11,7.75-14.09,0-7.56-3.93-12.94-13.12-18" transform="translate(-92.48 -279.4)"/><path class="cls-2" d="M340,483.07c-1.73,0-2,1.6-2.14,2.37v.08a10,10,0,0,1-2.17,4.06c-2.49,2.79-5.67,3.26-11.84,3.26-8.8,0-21.2-7.19-21.2-23.18,0-8.07,2-13.53,6.2-17.17,3-2.58,6.73-3.63,12.79-3.63,5.84,0,10.6,1.36,13.05,3.72a8.57,8.57,0,0,1,2.41,5.61c0,2.47,1.41,2.74,2,2.74,1.29,0,2-.95,2.24-2.81V458c0-.54.06-1.46.08-2.89,0-1.68.08-3.4.16-4.64.09-1.4.17-2.2.25-2.8l0-.42c0-.3,0-.52,0-.72a2.12,2.12,0,0,0-2.19-2.08c-1.14-.14-2.45-.34-4.12-.64-1-.16-2-.34-3.15-.52l-.12,0a78.11,78.11,0,0,0-10.46-.71c-10.19,0-17.74,2.44-23.76,7.69-8.22,7.35-8.85,17.22-8.85,20.06,0,9,3.18,16.3,9.47,21.57s14.67,7.84,25.58,7.84c2.82,0,9.79-.16,13.54-1.64a3.63,3.63,0,0,0,2.61-2.87,62.72,62.72,0,0,0,1.61-9.63,2.34,2.34,0,0,0-2.08-2.51" transform="translate(-92.48 -279.4)"/><path class="cls-2" d="M234.23,494.82a14.76,14.76,0,0,1-2.5-.24c-1-.18-2.71-1.07-5.22-6.72-1.95-4.5-5.3-12.39-8.55-20l-1.58-3.72c-3.68-8.65-7.35-17.27-8.26-19.28-.73-1.58-1.36-3-3.27-3-1.67,0-2.51,1.68-3.29,3.55l-18.89,43.9c-1.6,3.84-2.65,5-4.87,5.39-.33,0-.71,0-1.06,0l-.36,0-.66,0a2,2,0,0,0-2.09,2c0,.75.33,2,2.59,2,2.54,0,5.06-.11,6.94-.21l1.06,0h.37c1.12,0,2.53.07,3.89.14h.2c1.37,0,2.78.11,3.95.11,2.23,0,2.41-1.54,2.41-2s-.17-2-2.33-2h-1.06c-1.61,0-1.61-.31-1.61-.71a11.45,11.45,0,0,1,1-3.79l11.9-29.8,13.53,34.38a1.86,1.86,0,0,0-1.62,1.92c0,1.63,1.78,1.74,3,1.81l.4,0c6.09.18,11.37.18,13.9.18,2.25,0,4.38,0,4.38-2a2,2,0,0,0-2.24-2" transform="translate(-92.48 -279.4)"/><path class="cls-2" d="M295.08,494.82a5.79,5.79,0,0,1-1.69-.2c-1.07-.21-3.3-.63-6.87-4.2-4.09-4.09-8.83-9.94-14.84-17.35l-.1-.12c6.65-5.53,9.5-10.22,9.5-15.58a13.4,13.4,0,0,0-5.65-10.65c-4.21-2.81-9.91-3.17-14.41-3.17-1,0-3.18,0-5.37.08h-.08c-2.24,0-4.56.09-5.79.09l-1.32,0-1.48,0c-2.42-.08-5-.12-7-.12-2.4,0-2.9,1-2.9,1.91s.65,2,2.49,2a11.93,11.93,0,0,1,2.52.2c1.84.53,2.09.82,2.2,2.6.09,2.2.09,4.11.09,14.73v12.3c0,6.36,0,11.85-.33,14.72-.28,2.39-.74,2.49-1.2,2.59a8.58,8.58,0,0,1-2.22.22c-1.66,0-2.4,1-2.4,2,0,.34.13,2,2.68,2,1.81,0,4.21-.1,5.89-.18l.69,0c1,0,1.8-.06,2.26-.06l1.42,0,1.48,0c2.41.08,5.71.18,8.34.18,2,0,2.74-1.08,2.74-2a2.1,2.1,0,0,0-2.17-2,21.8,21.8,0,0,1-3.34-.25c-1.24-.18-1.47-.52-1.72-2.56-.35-3.18-.4-9.5-.4-14.67l0-.31,5.75.14c.29,0,.31,0,.34.05.36.42,1.18,1.6,2.22,3.09,1.15,1.67,2.87,4.15,4.54,6.35,4.41,5.93,7.07,9,10.28,10.62,2.18,1.15,4.4,1.55,8.47,1.55h6.9c2.3,0,2.64-1.26,2.64-2a2.09,2.09,0,0,0-2.16-2m-25.64-34c0,5.27-2.26,8-4.17,9.32-.87.64-1.5.9-4.32.9a19.71,19.71,0,0,1-4.89-.55V449.85a31,31,0,0,1,3.64-.16C264.41,449.69,269.44,452.61,269.44,460.81Z" transform="translate(-92.48 -279.4)"/><path class="cls-3" d="M238.76,548a.79.79,0,0,1,.8,0,1,1,0,0,1,.56.72,2.64,2.64,0,0,0,.34.87c.16.24-.09,1-.74,2.37s-1.32,2.8-2,4.4-1.25,2.91-1.66,3.92-.54,1.65-.38,1.87.73,0,1.7-.73,1.87-1.38,2.66-2,1.89-1.52,3.27-2.73,2.32-2,2.79-2.32a3.47,3.47,0,0,1,1.12-.59,1.57,1.57,0,0,1,.95.16,1.52,1.52,0,0,1,.77.64.73.73,0,0,1,0,.79,5.94,5.94,0,0,1-.67.91,3.4,3.4,0,0,1-1.24.86,6.65,6.65,0,0,0-1.74,1.2,9.19,9.19,0,0,1-1.36,1.09,9.81,9.81,0,0,0-1.4,1.14,25.11,25.11,0,0,1-2.89,2.2c-1.26.86-1.19,1.73.23,2.6l2.84,1.76a5.19,5.19,0,0,0,1.27.56,5.3,5.3,0,0,1,1,.32,2.09,2.09,0,0,1,.67.47c.14.19.09.37-.13.56a1.49,1.49,0,0,1-.83.3,14.66,14.66,0,0,1-1.47,0,5,5,0,0,1-1.73-.36c-.5-.21-1-.46-1.57-.73a7.6,7.6,0,0,1-1.49-1,6.53,6.53,0,0,0-1.08-.75,16.23,16.23,0,0,1-1.45-1c-.71-.53-1.17-.74-1.41-.64s-.52.76-.86,2a43.06,43.06,0,0,1-2,5.15c-.94,2.2-1.62,3.37-2,3.51s-.66.07-.78-.2a2.67,2.67,0,0,1-.1-1.33,8.62,8.62,0,0,1,.57-2.2c.32-.84.62-1.71.89-2.6s.79-2.38,1.54-4.45a32.24,32.24,0,0,1,1.36-3.47,7,7,0,0,0,.61-1.22,28.16,28.16,0,0,0,.94-2.75,17.37,17.37,0,0,1,1-2.67c.27-.53.56-1.21.92-2.05a16.06,16.06,0,0,0,.64-1.73c.08-.32.19-.68.33-1.11a3.81,3.81,0,0,1,.57-1.06,3.61,3.61,0,0,1,.7-.67" transform="translate(-92.48 -279.4)"/><path class="cls-3" d="M251.16,561c1-.07,1.56.1,1.77.5a3,3,0,0,1,.28,1.52,2,2,0,0,1-.88,1.56,12,12,0,0,1-2.25,1.25,2.3,2.3,0,0,1-.71.16,3.87,3.87,0,0,1-.52,0l-.32-.07c-.08,0-.13,0-.15,0a2.39,2.39,0,0,0-.4,1.25,1.67,1.67,0,0,0,.4,1.17,1.55,1.55,0,0,0,.93.63,3.08,3.08,0,0,0,1.09,0,16.36,16.36,0,0,0,2.09-.73,7.8,7.8,0,0,0,2.13-1.17l1.15-1.07c.37-.34.41-.34.15,0l-1,1.25a10.49,10.49,0,0,1-1.45,1.46c-.58.48-1.05.85-1.41,1.1a5.85,5.85,0,0,1-1.46.7,3.84,3.84,0,0,1-1.77.18,3.31,3.31,0,0,1-1.29-.41,4.36,4.36,0,0,1-.8-.68,3.48,3.48,0,0,1-.61-.93,3.88,3.88,0,0,1-.23-1.46,5.15,5.15,0,0,1,.45-2,7,7,0,0,1,1-1.79,8.58,8.58,0,0,1,1.53-1.43,5.62,5.62,0,0,1,2.22-1m0,2q-.15-.15-.75.15a2.45,2.45,0,0,0-.88.67c-.18.26-.22.44-.1.56s.36.07.74-.14a4,4,0,0,0,.9-.62C251.31,563.36,251.34,563.16,251.17,563Z" transform="translate(-92.48 -279.4)"/><path class="cls-3" d="M260.13,561.07c1-.06,1.57.11,1.77.5a3.08,3.08,0,0,1,.28,1.53,2,2,0,0,1-.88,1.56,11.65,11.65,0,0,1-2.25,1.25,2.3,2.3,0,0,1-.71.16,3.58,3.58,0,0,1-.51,0,1.68,1.68,0,0,1-.33-.07c-.08,0-.13,0-.14,0a2.32,2.32,0,0,0-.41,1.26,1.74,1.74,0,0,0,.4,1.17,1.53,1.53,0,0,0,.94.62,3.09,3.09,0,0,0,1.09,0,15.82,15.82,0,0,0,2.09-.73,7.59,7.59,0,0,0,2.13-1.17l1.15-1.06q.54-.52.15,0l-1,1.25a10.44,10.44,0,0,1-1.45,1.45q-.87.72-1.41,1.11a6.13,6.13,0,0,1-1.45.7,3.87,3.87,0,0,1-1.77.18,3.35,3.35,0,0,1-1.3-.42,4.3,4.3,0,0,1-.8-.68,3.51,3.51,0,0,1-.61-.92,3.88,3.88,0,0,1-.23-1.46,5.25,5.25,0,0,1,.45-2,7.33,7.33,0,0,1,1-1.79,7.71,7.71,0,0,1,1.54-1.43,5.46,5.46,0,0,1,2.21-1m0,2c-.1-.1-.35-.06-.75.15a2.35,2.35,0,0,0-.88.67c-.17.25-.21.44-.09.56s.35.06.74-.14a5,5,0,0,0,.9-.62C260.29,563.44,260.31,563.23,260.14,563Z" transform="translate(-92.48 -279.4)"/><path class="cls-3" d="M265.43,562.16a16.73,16.73,0,0,1,2.38-1.43.64.64,0,0,1,.72.11,1,1,0,0,1,.34.64,5.92,5.92,0,0,1-.23,1.66c-.2.85-.2,1.21,0,1.05a3.59,3.59,0,0,1,.81-.48c.35-.15.79-.32,1.32-.5a3.72,3.72,0,0,1,1.5-.23,1.74,1.74,0,0,1,1,.35,1.56,1.56,0,0,1,.45.48c.07.12.15.3.26.54a1.43,1.43,0,0,1,.16.42,2,2,0,0,0,0,.32,2.89,2.89,0,0,1-.05.83,5.56,5.56,0,0,1-.48,1.38,5.22,5.22,0,0,1-1.15,1.52,7.58,7.58,0,0,1-1.31,1,10.44,10.44,0,0,1-1.17.54,6.41,6.41,0,0,1-1.29.32,1.33,1.33,0,0,1-1-.19.81.81,0,0,1-.38-.65,1.65,1.65,0,0,1,.23-.81c.17-.3.33-.57.5-.81a4.67,4.67,0,0,1,.84-.84,5.4,5.4,0,0,1,1.23-.76,5.89,5.89,0,0,1,1-.35c.24,0,.08.12-.5.51a14.27,14.27,0,0,0-1.5,1.14c-.44.37-.58.64-.42.82s.42.19.82,0a6,6,0,0,0,1.74-1.35c.78-.74,1-1.39.77-1.93s-.78-.68-1.54-.41a6.76,6.76,0,0,0-2,1.19,9.18,9.18,0,0,0-1.89,3.15c-.67,1.58-1.13,2.74-1.42,3.5s-.66,1.8-1.12,3.14a35.41,35.41,0,0,1-1.63,3.86c-.62,1.24-1.12,1.79-1.5,1.64a1.09,1.09,0,0,1-.7-.63,1.89,1.89,0,0,1-.08-.82,4.28,4.28,0,0,1,.37-1.1c.21-.44.49-1.17.85-2.2s1.11-3,2.25-5.92,1.83-4.66,2-5.2.5-1.34.84-2.39.38-1.54.11-1.44a16.27,16.27,0,0,0-1.75.85c-.91.48-.72.3.59-.55" transform="translate(-92.48 -279.4)"/><path class="cls-3" d="M295.13,553.49a2.55,2.55,0,0,1,1.89-.44,2,2,0,0,1,1.15.71,1.27,1.27,0,0,1-.65,1.94c-.38.1-.83.24-1.37.42a7.55,7.55,0,0,0-1.78.89,30.32,30.32,0,0,0-2.48,1.86,33.26,33.26,0,0,0-3,2.78,9.55,9.55,0,0,0-2.1,3.16,10.54,10.54,0,0,0-.64,2.24,4,4,0,0,0,.13,1.42,2.49,2.49,0,0,0,.69,1.2,2.93,2.93,0,0,0,1.2.63,4.71,4.71,0,0,0,1.51.13l2-.16a19.51,19.51,0,0,0,3.21-.62,20.54,20.54,0,0,0,4-1.6,11.52,11.52,0,0,0,2.68-1.72c.43-.43.41-.35-.06.23a8.49,8.49,0,0,1-2,1.67c-.85.54-2.13,1.28-3.81,2.21a23.57,23.57,0,0,1-3.74,1.79,11.24,11.24,0,0,1-2.36.48,8.41,8.41,0,0,1-2.15-.07,4,4,0,0,1-1.63-.62,5.91,5.91,0,0,1-1.38-1.48,5,5,0,0,1-.87-2.4,7.78,7.78,0,0,1,.24-2.78,9,9,0,0,1,1.1-2.52c.47-.74,1.08-1.6,1.82-2.58a17.22,17.22,0,0,1,3.16-3.07c1.38-1.07,2.4-1.84,3.09-2.33a24.73,24.73,0,0,1,2.12-1.37" transform="translate(-92.48 -279.4)"/><path class="cls-3" d="M303.58,561.57a2.87,2.87,0,0,1,1.1,0,2.1,2.1,0,0,1,.95.37,2.66,2.66,0,0,1,.67,1.12c.22.56.11.92-.3,1.11a1,1,0,0,1-1.12-.21.82.82,0,0,0-1-.2c-.37.18-.73.37-1.09.56a10.22,10.22,0,0,0-1.32.92,12,12,0,0,0-1.62,1.59,6.54,6.54,0,0,0-.93,1.24c-.05.19.08.16.43-.07s.86-.58,1.57-1a19.34,19.34,0,0,1,2.66-1.42c1.07-.49,1.75-.68,2-.57a1.67,1.67,0,0,1,.72.61,1.72,1.72,0,0,1,.34.75.66.66,0,0,1-.1.5,3,3,0,0,0-.33.84,2,2,0,0,0,0,1.26,1.71,1.71,0,0,0,.55.84,1.27,1.27,0,0,0,.92.14,3.25,3.25,0,0,0,1.45-.88c.58-.53.55-.4-.08.37a6.43,6.43,0,0,1-1.49,1.46,1.7,1.7,0,0,1-.84.3,2.89,2.89,0,0,1-.8-.2,3.19,3.19,0,0,1-.92-.59,2.64,2.64,0,0,1-.67-1,6.79,6.79,0,0,1-.33-.84,1.83,1.83,0,0,0-.4-.6.64.64,0,0,0-.77-.15,9.53,9.53,0,0,0-1.6,1,21.77,21.77,0,0,1-2.14,1.34,8.09,8.09,0,0,1-1.78.72,2.47,2.47,0,0,1-1,.13c-.15,0-.31-.21-.48-.48a1.87,1.87,0,0,1-.31-.93,2.36,2.36,0,0,1,.14-1,10.17,10.17,0,0,1,1.41-2,18,18,0,0,1,2.35-2.49,13,13,0,0,1,2.39-1.64,10.63,10.63,0,0,1,1.77-.83" transform="translate(-92.48 -279.4)"/><path class="cls-3" d="M310.35,564.56c.54-2,1.06-3,1.54-2.94a1.37,1.37,0,0,1,1.09.66,1.41,1.41,0,0,1-.08,1.45c-.31.57-.34.84-.11.81a2.87,2.87,0,0,0,.95-.43,9.12,9.12,0,0,1,1.13-.61,5.18,5.18,0,0,1,.86-.28,3.3,3.3,0,0,1,1.25.23,6.9,6.9,0,0,1,1.74.81,2.59,2.59,0,0,0,2.18.1c.91-.27.81-.18-.29.28a7.88,7.88,0,0,1-3.39.63,6,6,0,0,0-2.67.4,7.91,7.91,0,0,0-1.61,1,5,5,0,0,0-1.21,1.82,22.52,22.52,0,0,0-.87,2.13c-.2.58-.38,1-.54,1.42a1,1,0,0,1-.94.58.86.86,0,0,1-.93-.52c-.14-.37-.18-.6-.1-.71a15.62,15.62,0,0,0,.67-2c.36-1.22.81-2.83,1.33-4.84" transform="translate(-92.48 -279.4)"/><path class="cls-3" d="M322,561.51a2.25,2.25,0,0,1,1.1.08c.41.12.48.54.2,1.26s-.57,1.66-.91,2.82a27.39,27.39,0,0,1-.92,2.81,9.69,9.69,0,0,1-1,1.88c-.35.52-.68.8-1,.85a1.37,1.37,0,0,1-.66,0c-.13-.07-.13-.41,0-1s.32-1.54.65-2.79.65-2.34.95-3.26.31-1.4,0-1.42-.17-.21.33-.56a4,4,0,0,1,1.21-.62m3.53-6.55a2.52,2.52,0,0,1,.56,1.71,5.42,5.42,0,0,0,.88,2.57,6.87,6.87,0,0,0,1.88,2,8,8,0,0,0,2,1c.6.22.58.26-.06.14a5.11,5.11,0,0,1-1.89-.77,10.79,10.79,0,0,1-2-1.8c-.72-.79-1.24-1.38-1.57-1.75a2.35,2.35,0,0,0-.7-.62l-.35-.11a2.16,2.16,0,0,1-.65-.43.91.91,0,0,1-.35-1,2,2,0,0,1,.38-.86,1.44,1.44,0,0,1,.84-.41A1.14,1.14,0,0,1,325.49,555Z" transform="translate(-92.48 -279.4)"/><path class="cls-3" d="M327.62,562.1a1.39,1.39,0,0,1,1.16.1c.47.21.57.59.3,1.13s-.71,1.46-1.34,2.72-.68,1.61-.19,1a16.26,16.26,0,0,1,1.77-1.73,12.17,12.17,0,0,1,1.5-1.14,3.7,3.7,0,0,1,1-.38,2.22,2.22,0,0,1,1.21.07,2,2,0,0,1,1.14,1.11,6.89,6.89,0,0,1,.49,3c0,1.38.34,2.06,1,2a3.58,3.58,0,0,0,1.93-.71A5.57,5.57,0,0,0,339,568c.31-.47.44-.6.39-.38a2.63,2.63,0,0,1-.5.95,14.85,14.85,0,0,1-1.87,1.94,4,4,0,0,1-2.45,1.33,1.53,1.53,0,0,1-1.49-.84,7.24,7.24,0,0,1-.59-2.71c-.08-1.24-.24-1.87-.47-1.89a3.57,3.57,0,0,0-1.53.68,9,9,0,0,0-2.16,1.88c-.66.78-1.2,1.43-1.62,2a2.88,2.88,0,0,1-1.12,1,.67.67,0,0,1-.82-.27,1.38,1.38,0,0,1-.21-1.07c.07-.42.21-1.06.4-1.93a20.43,20.43,0,0,1,.83-2.74c.35-1,.28-1.28-.24-1a16.42,16.42,0,0,0-1.86,1.49c-.74.68-.48.36.79-.94a29.88,29.88,0,0,0,2.1-2.28l.41-.59a1.75,1.75,0,0,1,.65-.49" transform="translate(-92.48 -279.4)"/><path class="cls-3" d="M346.4,562.24c1.07.09,1.49.36,1.26.82a11.07,11.07,0,0,0-.71,2.42c-.24,1.16-.46,2.14-.68,2.94a16.28,16.28,0,0,1-.88,2.53c-.39.9-.68,1.58-.9,2.06s-.48,1-.79,1.64-.84,1.46-1.57,2.57a13.35,13.35,0,0,1-2.5,2.86,6.68,6.68,0,0,1-2.29,1.42,3.23,3.23,0,0,1-2-.17,1.74,1.74,0,0,1-1.17-1.7q-.07-1.3,3.1-4.23c2.12-1.95,2.24-2,.38-.22s-2.81,3.06-2.84,3.74.12,1.07.46,1.17a1.47,1.47,0,0,0,1,0,5.29,5.29,0,0,0,1.4-.91,16.16,16.16,0,0,0,1.49-1.35,13.29,13.29,0,0,0,1.46-1.92,20,20,0,0,0,1.56-2.77c.46-1,.78-1.66,1-2s.48-1.18.92-2.39.39-1.53-.18-.94a19.19,19.19,0,0,1-2.25,1.92,8,8,0,0,1-2.28,1.32,2.48,2.48,0,0,1-1.36.14,1.69,1.69,0,0,1-.82-.54c-.24-.26-.28-.8-.12-1.58a10,10,0,0,1,1.17-2.82,7.53,7.53,0,0,1,2.14-2.5,10,10,0,0,1,2.19-1.23,4.22,4.22,0,0,1,1.5-.34,3.66,3.66,0,0,1,1.23.33.86.86,0,0,0,1.1-.2m-2.35,2.28c-.25-.24-.61-.22-1.1.07a8.46,8.46,0,0,0-1.66,1.34,9.55,9.55,0,0,0-1.55,1.91c-.41.68-.21.78.59.3a14.14,14.14,0,0,0,2.16-1.54,12.74,12.74,0,0,0,1.42-1.38C344.22,564.86,344.27,564.63,344.05,564.52Z" transform="translate(-92.48 -279.4)"/><path class="cls-3" d="M349.74,570.07a1.92,1.92,0,0,1,1.48-.38,2.27,2.27,0,0,1,1.3.32,1.31,1.31,0,0,1,.34.74,1.23,1.23,0,0,1-.44,1,2.17,2.17,0,0,1-1.18.68A1.91,1.91,0,0,1,349.3,571a1.25,1.25,0,0,1,.44-.91" transform="translate(-92.48 -279.4)"/><path class="cls-3" d="M355.9,570.12a2,2,0,0,1,1.49-.38,2.27,2.27,0,0,1,1.3.32,1.46,1.46,0,0,1,.34.74,1.26,1.26,0,0,1-.44,1,2.19,2.19,0,0,1-1.18.69,1.52,1.52,0,0,1-1.3-.45,1.49,1.49,0,0,1-.64-1.05,1.31,1.31,0,0,1,.43-.91" transform="translate(-92.48 -279.4)"/><path class="cls-3" d="M362.08,570.18a1.9,1.9,0,0,1,1.48-.38,2.25,2.25,0,0,1,1.31.31,1.45,1.45,0,0,1,.33.75,1.22,1.22,0,0,1-.44,1,2.1,2.1,0,0,1-1.18.69,1.53,1.53,0,0,1-1.3-.45,1.51,1.51,0,0,1-.64-1,1.27,1.27,0,0,1,.44-.9" transform="translate(-92.48 -279.4)"/><path class="cls-2" d="M499.1,526.28c0,.9-1.73,1.64-3.83,1.66l-83.91.68c-2.1,0-3.84-1-3.84-2.33s1.74-2.34,3.84-2.34l83.91.65c2.1,0,3.83.76,3.83,1.68" transform="translate(-92.48 -279.4)"/><path class="cls-2" d="M95,526.28c0,.9,1.73,1.64,3.84,1.66l83.89.68c2.11,0,3.85-1,3.85-2.33s-1.74-2.34-3.85-2.34l-83.89.65c-2.11,0-3.84.76-3.84,1.68" transform="translate(-92.48 -279.4)"/><polygon class="cls-4" points="110.78 254.39 107.98 254.39 107.98 235.56 110.78 235.56 110.78 243.94 120.64 243.94 120.64 235.56 123.44 235.56 123.44 254.39 120.64 254.39 120.64 245.82 110.78 245.82 110.78 254.39"/><path class="cls-4" d="M236.89,534.38a8.78,8.78,0,0,1-6.57-2.6c-1.71-1.74-2.55-4.21-2.55-7.39s.84-5.66,2.55-7.4a9.65,9.65,0,0,1,13.16,0c1.7,1.74,2.56,4.2,2.56,7.4s-.86,5.65-2.56,7.39a8.86,8.86,0,0,1-6.59,2.6m0-1.9a5.37,5.37,0,0,0,4.58-2.23,9.44,9.44,0,0,0,1.66-5.86,9.58,9.58,0,0,0-1.66-5.88,5.81,5.81,0,0,0-9.15,0,9.65,9.65,0,0,0-1.66,5.88,9.5,9.5,0,0,0,1.66,5.86A5.38,5.38,0,0,0,236.89,532.48Z" transform="translate(-92.48 -279.4)"/><path class="cls-4" d="M257.33,529.56h2.8v.11a2.22,2.22,0,0,0,1.25,2.19,7.59,7.59,0,0,0,3.35.62,4.89,4.89,0,0,0,3.08-.94,3,3,0,0,0,1.23-2.46,2.37,2.37,0,0,0-1.07-2,12.91,12.91,0,0,0-3.24-1.55l-1.11-.42a15.3,15.3,0,0,1-3.42-1.62,5.64,5.64,0,0,1-1.68-1.79,4.36,4.36,0,0,1-.55-2.2,4.55,4.55,0,0,1,1.73-3.6c1.13-1,2.92-1.48,5.39-1.48,2.22,0,3.82.38,4.73,1.1a3.17,3.17,0,0,1,1.37,2.54v.14h-2.8V518a1.35,1.35,0,0,0-.42-.9,2.43,2.43,0,0,0-1.27-.65,8.15,8.15,0,0,0-1.84-.21,4.42,4.42,0,0,0-3.06.91,2.78,2.78,0,0,0-1,2.06,2.55,2.55,0,0,0,.49,1.45,3.62,3.62,0,0,0,1.29,1.15,25.56,25.56,0,0,0,2.77,1.2l1.32.5a9.82,9.82,0,0,1,4.23,2.52,4.49,4.49,0,0,1,1,2.84,4.82,4.82,0,0,1-.86,2.75,5.45,5.45,0,0,1-2.38,2,10,10,0,0,1-4.06.69,13.54,13.54,0,0,1-4-.51,4.57,4.57,0,0,1-2.44-1.66,4.15,4.15,0,0,1-.85-2.54Z" transform="translate(-92.48 -279.4)"/><path class="cls-4" d="M286.33,533.8h-2.79V515h6a13.16,13.16,0,0,1,4.82.61,4.5,4.5,0,0,1,2.12,1.8,5.16,5.16,0,0,1,.72,2.74,5.63,5.63,0,0,1-2.07,4.45c-1.36,1.19-3.41,1.79-6.13,1.79h-2.65Zm0-9.32h1.89c2.47,0,4.1-.43,4.88-1.25a4.24,4.24,0,0,0,1.2-3,3.35,3.35,0,0,0-1-2.45c-.64-.62-1.89-.91-3.76-.91h-3.25Z" transform="translate(-92.48 -279.4)"/><rect class="cls-4" x="216.12" y="235.56" width="2.77" height="18.83"/><polygon class="cls-4" points="237.18 254.39 237.18 237.47 229.88 237.47 229.88 235.56 247.17 235.56 247.17 237.47 239.97 237.47 239.97 254.39 237.18 254.39"/><path class="cls-4" d="M351.61,533.8H349L357.83,515h2.82l8.13,18.83h-3l-2.23-5.19H354Zm3.28-7.06h7.81L358.93,518Z" transform="translate(-92.48 -279.4)"/><polygon class="cls-4" points="287.25 254.39 287.25 235.56 290.05 235.56 290.05 252.31 301.32 252.31 301.32 254.39 287.25 254.39"/><path class="cls-5" d="M304,375.14c8.09.94,14-3.28,15.5-6a18.86,18.86,0,0,1-14.08,1.77,16.36,16.36,0,0,1-6-3.28h0a16.7,16.7,0,0,1-6.35-13.26A15.93,15.93,0,0,1,298.81,342c2.13-2,9-7.5,20.1-3.14-.86-1.66-4.2-4.44-9.94-5.26a22.28,22.28,0,0,0-2.5-.15A20.7,20.7,0,0,0,286,354.35a20.55,20.55,0,0,0,18,20.79m2.46-39.58h.07a16.61,16.61,0,0,1,1.87.09A18.71,18.71,0,0,0,291,354.35,19.42,19.42,0,0,0,305,373.07a18.81,18.81,0,0,1,1.49-37.51Z" transform="translate(-92.48 -279.4)"/><path class="cls-5" d="M310.27,372.71a18.36,18.36,0,0,1,0-36.72,17.75,17.75,0,0,1,5.8,1,19.09,19.09,0,0,0-9.41-2.49,19.85,19.85,0,0,0,0,39.7,18.88,18.88,0,0,0,9.41-2.49,17.46,17.46,0,0,1-5.8,1" transform="translate(-92.48 -279.4)"/><path class="cls-2" d="M241.52,358.63A62.76,62.76,0,0,1,360.29,330.3,65,65,0,1,0,248.9,388.13a62.52,62.52,0,0,1-7.38-29.5" transform="translate(-92.48 -279.4)"/><path class="cls-2" d="M339.35,316.36a51.48,51.48,0,1,1-89.26,51.24,53.67,53.67,0,1,0,89.26-51.24" transform="translate(-92.48 -279.4)"/><path class="cls-2" d="M273.43,365.81a37,37,0,0,1,59.25-39.28,37.66,37.66,0,1,0-51.24,53.12,36.63,36.63,0,0,1-8-13.84" transform="translate(-92.48 -279.4)"/><path class="cls-2" d="M490.65,425.11v-9.55H493l2.41,7.62,2.33-7.62H500v9.55h-1.45v-8l-2.46,8h-1.44L492.12,417v8.13Zm-5.77,0V417h-3.1v-1.42h7.81V417h-3.12v8.13Z" transform="translate(-92.48 -279.4)"/></svg>